<?xml version="1.0" encoding="UTF-8" standalone="no"?><!DOCTYPE svg PUBLIC "-//W3C//DTD SVG 1.1//EN" "http://www.w3.org/Graphics/SVG/1.1/DTD/svg11.dtd"><svg width="100%" height="100%" viewBox="0 0 2250 2250" version="1.1" xmlns="http://www.w3.org/2000/svg" xmlns:xlink="http://www.w3.org/1999/xlink" xml:space="preserve" xmlns:serif="http://www.serif.com/" style="fill-rule:evenodd;clip-rule:evenodd;stroke-linecap:round;stroke-linejoin:round;stroke-miterlimit:1.5;"><path d="M191.598,1142.78c0,0 -0.88,-127.892 96.414,-186.098c138.724,-82.991 332.664,-43.29 386.945,92.988c0,0 -34.873,-582.536 -7.207,-710.784c12.445,-57.691 73.92,-104.836 163.976,-102.222c34.588,1.003 103.289,11.836 105.746,74.296c13.424,341.36 31.966,678.176 27.234,680.647c24.976,-709.19 -4.952,-724.61 28.572,-817.626c20.816,-57.758 62.386,-87.261 142.979,-87.28c65.914,-0.015 113.085,37.873 127.437,87.28c30.905,106.393 31.973,325.913 31.276,823.07c0,0 24.424,-168.751 25.574,-686.091c0.06,-26.859 57.786,-73.303 123.213,-74.296c99.026,-1.505 123.136,52.208 136.642,109.479c30.171,127.946 3.215,703.527 3.215,703.527c0,0 158.285,-150.665 374.243,-92.988c135.457,36.178 120.683,186.098 120.683,186.098c-117.152,-31.368 -239.804,62.853 -287.437,141.149c-63.871,104.988 -28.344,388.96 -64.64,522.675c-46.698,172.037 -273.766,385.713 -590.206,381.718c-308.937,-3.9 -568.239,-206.66 -611.54,-381.718c-42.339,-171.169 9,-390.626 -58.128,-522.675c-41.86,-82.344 -149.576,-173.105 -274.991,-141.149Z" style="fill:#945d60;"/><path d="M951.574,268.323c1.59,-45.634 6.199,-69.56 18.185,-102.816c12.474,-34.612 31.576,-60.447 59.224,-77.942c26.392,-16.701 61.166,-25.851 107.268,-25.862c78.717,-0.018 134.311,46.303 151.45,105.306c8.217,28.285 14.392,64.496 19.018,111.691c2.705,-4.131 5.938,-8.282 9.709,-12.377c24.63,-26.749 73.523,-53.843 126.949,-54.654c46.385,-0.705 78.526,9.762 101.658,25.877c34.849,24.278 50.166,62.446 59.696,102.862c24.81,105.209 11.771,510.152 6.071,656.917c64.609,-43.294 194.314,-107.311 353.506,-64.794c155.214,41.455 139.111,212.703 139.111,212.703l-2.889,29.316l-28.456,-7.619c-52.1,-13.95 -105.284,0.816 -150.877,26.984c-47.329,27.164 -86.746,66.865 -108.735,103.009c-23.979,39.414 -31.886,105.941 -36.297,179.333c-7.156,119.095 -3.464,255.44 -25.575,336.898l-1.176,4.216c-51.235,178.79 -285.856,400.087 -613.473,395.951c-191.676,-2.42 -364.853,-78.925 -482.416,-178.796c-80.363,-68.27 -134.712,-147.672 -153.077,-221.917c-21.614,-87.382 -19.632,-187.067 -20.498,-281.782c-0.81,-88.536 -3.614,-172.553 -35.647,-235.567c-37.634,-74.032 -133.777,-156.982 -246.532,-128.252l-30.953,7.886l-0.219,-31.94c0,0 -0.227,-142.631 108.578,-207.723c121.268,-72.548 280.537,-57.37 370.135,27.607c-8.395,-169.255 -23.176,-531.06 -2,-629.222c14.494,-67.188 84.258,-124.984 189.139,-121.94c20.038,0.582 49.895,4.295 75.161,16.624c18.093,8.83 33.999,21.665 43.962,40.023Zm13.817,703.46c-1.048,-77.11 -16.376,-367.285 -27.919,-660.821c-2.457,-62.46 -71.158,-73.293 -105.746,-74.296c-90.056,-2.614 -151.531,44.531 -163.976,102.222c-27.666,128.248 7.207,710.784 7.207,710.784c-54.281,-136.278 -248.221,-175.979 -386.945,-92.988c-97.294,58.206 -96.414,186.098 -96.414,186.098c125.415,-31.956 233.131,58.805 274.991,141.149c67.128,132.049 15.789,351.506 58.128,522.675c43.301,175.058 302.603,377.818 611.54,381.718c316.44,3.995 543.508,-209.681 590.206,-381.718c36.296,-133.715 0.769,-417.687 64.64,-522.675c47.633,-78.296 170.285,-172.517 287.437,-141.149c0,0 14.774,-149.92 -120.683,-186.098c-215.958,-57.677 -374.243,92.988 -374.243,92.988c0,0 26.956,-575.581 -3.215,-703.527c-13.506,-57.271 -37.616,-110.984 -136.642,-109.479c-65.427,0.993 -123.153,47.437 -123.213,74.296c-1.15,517.34 -25.574,686.091 -25.574,686.091c0.697,-497.157 -0.371,-716.677 -31.276,-823.07c-14.352,-49.407 -61.523,-87.295 -127.437,-87.28c-80.593,0.019 -122.163,29.522 -142.979,87.28c-33.209,92.141 -4.153,108.139 -27.887,797.8c0.184,12.571 -0.022,19.48 -0.685,19.826l0.685,-19.826Z" style="fill:#fff;"/><path d="M513.139,1326.09c0,0 2.852,-74.914 83.565,-123.055c59.156,-35.284 200.158,-28.626 236.051,61.487c0,0 -19.018,-361.397 -4.766,-444.999c10.414,-61.084 42.862,-89.905 85.525,-92.593c27.96,-1.762 82.062,15.112 90.014,61.828c14.981,87.997 20.82,392.522 20.82,392.522c0,0 -7.659,-418.164 10.565,-489.549c8.339,-32.663 41.252,-63.95 94.544,-63.962c43.584,-0.01 84.854,23.121 98.84,61.879c24.867,68.91 10.526,491.632 10.526,491.632c0,0 11.088,-303.297 23.714,-386.757c3.426,-22.652 15.061,-64.817 68.942,-67.593c73.278,-3.776 91.06,34.522 99.99,72.392c19.95,84.602 2.126,465.2 2.126,465.2c0,0 79.334,-143.417 232.448,-61.487c67.789,36.274 75.008,123.055 75.008,123.055c-77.465,-20.742 -152.973,33.132 -170.256,93.333c-21.883,76.227 -18.742,257.196 -42.743,345.614c-30.878,113.757 -181.025,255.049 -390.267,252.407c-204.282,-2.579 -375.742,-136.652 -404.375,-252.407c-27.996,-113.184 5.951,-258.298 -38.437,-345.614c-27.679,-54.449 -98.905,-114.464 -181.834,-93.333Z" style="fill:#945d60;"/><path d="M1009.23,753.541c1.824,-30.189 4.27,-53.752 7.512,-66.451c10.016,-39.232 48.696,-78.06 112.706,-78.074c51.632,-0.012 99.913,28.351 116.482,74.264c4.607,12.767 8.111,37.159 10.592,68.667c11.617,-21.674 33.208,-41.644 73.988,-43.746c43.623,-2.247 70.404,9.168 87.931,25.642c17.465,16.415 25.976,38.709 31.273,61.173c15.384,65.236 8.82,304.528 4.831,414.446c21.223,-19.993 51.415,-40.498 90.344,-47.716c35.865,-6.65 79.311,-2.367 129.996,24.754c76.215,40.782 84.847,138.032 84.847,138.032l2.209,26.56l-25.744,-6.893c-66.982,-17.935 -132.44,28.34 -147.384,80.395c-21.468,74.781 -18.795,250.455 -41.392,340.44l0.056,0l-1.333,4.912c-32.401,119.364 -189.043,269.015 -408.6,266.243c-127.304,-1.607 -242.321,-52.424 -320.401,-118.755c-53.545,-45.487 -89.702,-98.429 -101.938,-147.898c-14.332,-57.94 -13.045,-124.036 -13.62,-186.838c-0.532,-58.168 -2.284,-113.381 -23.33,-154.781c-24.51,-48.215 -87.056,-102.372 -160.491,-83.661l-24.321,6.197l0.955,-25.08c0,0 2.291,-84.521 92.697,-138.444c32.618,-19.456 87.713,-28.022 139.689,-18.629c31.154,5.631 60.948,17.628 84.423,36.767c-4.659,-107.357 -12.422,-325.836 -1.705,-388.698c12.329,-72.322 52.318,-104.973 102.829,-108.155c16.674,-1.051 41.19,3.258 62.676,14.992c13.351,7.291 25.471,17.325 34.223,30.335Zm-496.095,572.546c0,0 2.852,-74.914 83.565,-123.055c59.156,-35.284 200.158,-28.626 236.051,61.487c0,0 -19.018,-361.397 -4.766,-444.999c10.414,-61.084 42.862,-89.905 85.525,-92.593c27.96,-1.762 82.062,15.112 90.014,61.828c14.981,87.997 20.82,392.522 20.82,392.522c0,0 -7.659,-418.164 10.565,-489.549c8.339,-32.663 41.252,-63.95 94.544,-63.962c43.584,-0.01 84.854,23.121 98.84,61.879c24.867,68.91 10.526,491.632 10.526,491.632c0,0 11.088,-303.297 23.714,-386.757c3.426,-22.652 15.061,-64.817 68.942,-67.593c73.278,-3.776 91.06,34.522 99.99,72.392c19.95,84.602 2.126,465.2 2.126,465.2c0,0 79.334,-143.417 232.448,-61.487c67.789,36.274 75.008,123.055 75.008,123.055c-77.465,-20.742 -152.973,33.132 -170.256,93.333c-21.883,76.227 -18.742,257.196 -42.743,345.614c-30.878,113.757 -181.025,255.049 -390.267,252.407c-204.282,-2.579 -375.742,-136.652 -404.375,-252.407c-27.996,-113.184 5.951,-258.298 -38.437,-345.614c-27.679,-54.449 -98.905,-114.464 -181.834,-93.333Z" style="fill:#fff;"/><path d="M814.059,1486.7c0,0 -0.151,-37.457 40.205,-61.528c29.578,-17.642 109.985,-14.312 127.932,30.744c0,0 -11.53,-192.598 -2.383,-234.999c4.114,-19.074 24.439,-34.661 54.213,-33.797c11.436,0.332 36.232,9.356 37.044,30.007c4.438,112.86 8.487,231.476 6.922,232.293c8.258,-234.473 -1.637,-252.271 9.447,-283.024c6.882,-19.096 20.626,-28.85 47.272,-28.857c21.792,-0.005 37.388,12.522 42.133,28.857c10.218,35.175 10.571,107.753 10.34,272.123c0,0 7.948,-29.645 8.328,-200.688c0.02,-8.88 -2.177,-49.323 36.046,-50.711c36.671,-1.332 45.53,17.261 49.995,36.196c9.975,42.301 1.063,232.6 1.063,232.6c0,0 51.364,-61.865 123.732,-30.744c40.642,17.478 39.9,61.528 39.9,61.528c-38.733,-10.371 -79.284,20.78 -95.032,46.667c-21.117,34.711 -9.371,128.598 -21.372,172.806c-15.439,56.879 -90.512,127.525 -195.133,126.204c-102.141,-1.29 -187.872,-68.326 -202.188,-126.204c-13.998,-56.592 2.976,-129.148 -19.218,-172.806c-13.84,-27.225 -57.781,-57.232 -99.246,-46.667Z" style="fill:#945d60;"/><path d="M1070.6,1188.83c0.89,-10.476 2.567,-18.037 5.62,-26.475c4.839,-13.376 12.491,-23.025 23.803,-29.19c8.824,-4.808 20.119,-7.49 34.685,-7.476c12.751,0.012 23.774,3.547 32.529,9.299c10.384,6.824 17.647,16.782 20.926,28.123c2.339,8.075 4.204,18.049 5.664,30.54c0.969,-1.431 2.037,-2.807 3.204,-4.12c7.188,-8.077 17.863,-14.215 34.073,-14.898c18.79,-0.818 31.556,3.195 40.61,9.207c13.186,8.757 19.061,22.383 22.505,36.492c3.245,13.299 4.938,40.694 5.527,72.462c0.813,43.88 -0.289,96.378 -1.244,129.902c10.006,-6.736 22.508,-13.338 37.058,-17.44c21.674,-6.109 47.812,-6.768 76.949,5.592c17.555,7.447 28.914,18.948 36.306,30.736c13.837,22.068 13.298,45.386 13.298,45.386l-0.342,20.315l-19.627,-5.255c-14.65,-3.92 -29.554,0.181 -42.53,7.283c-15.161,8.298 -27.87,20.871 -34.828,32.312c-6.093,10.019 -8.45,25.887 -10.023,43.82c-3.545,40.391 -1.613,90.149 -8.564,120.731l0.107,0l-16.462,60.647l0,-21.676c-14.919,24.741 -38.385,49.251 -68.845,68.117c-34.286,21.234 -77.348,35.413 -126.486,34.742c-47.771,-0.659 -92.161,-14.808 -128.17,-35.739c-47.296,-27.491 -79.912,-66.853 -88.65,-102.422c-10.885,-44.307 -3.167,-98.248 -9.437,-140.839c-1.556,-10.57 -4.024,-20.353 -8.322,-28.84c-6.101,-12.05 -19.451,-24.533 -35.609,-32.54c-14.128,-7.001 -30.568,-10.629 -46.608,-6.569l-18.393,4.686l-0.077,-18.98c0,0 -0.375,-21.21 15.02,-43.958c6.992,-10.332 17.265,-21.09 32.54,-30.132c20.44,-12.099 62.04,-16.209 96.205,-5.489c8.313,2.609 16.154,6.063 23.201,10.381c-1.531,-33.906 -3.401,-83.989 -3.448,-126.178c-0.036,-32.173 1.093,-59.907 4.018,-73.278c2.536,-11.599 9.38,-22.333 20.015,-30.356c11.596,-8.749 27.857,-14.389 47.609,-13.761c9.243,0.294 25.21,4.898 36.193,14.838Zm7.719,250.936c-0.123,-30.547 -3.55,-128.59 -7.249,-222.636c-0.812,-20.651 -25.608,-29.675 -37.044,-30.007c-29.774,-0.864 -50.099,14.723 -54.213,33.797c-9.147,42.401 2.383,234.999 2.383,234.999c-17.947,-45.056 -98.354,-48.386 -127.932,-30.744c-40.356,24.071 -40.205,61.528 -40.205,61.528c41.465,-10.565 85.406,19.442 99.246,46.667c22.194,43.658 5.22,116.214 19.218,172.806c14.316,57.878 100.047,124.914 202.188,126.204c104.621,1.321 179.694,-69.325 195.133,-126.204c12.001,-44.208 0.255,-138.095 21.372,-172.806c15.748,-25.887 56.299,-57.038 95.032,-46.667c0,0 0.742,-44.05 -39.9,-61.528c-72.368,-31.121 -123.732,30.744 -123.732,30.744c0,0 8.912,-190.299 -1.063,-232.6c-4.465,-18.935 -13.324,-37.528 -49.995,-36.196c-38.223,1.388 -36.026,41.831 -36.046,50.711c-0.38,171.043 -8.328,200.688 -8.328,200.688c0.231,-164.37 -0.122,-236.948 -10.34,-272.123c-4.745,-16.335 -20.341,-28.862 -42.133,-28.857c-26.646,0.007 -40.39,9.761 -47.272,28.857c-10.93,30.325 -1.46,48.054 -9.12,273.367c0.039,6.111 -0.066,9.521 -0.327,9.657l0.327,-9.657Z" style="fill:#fff;"/><path d="M939.357,1612.87c0,0 9.497,-13.445 33.171,-33.623c46.76,-39.855 86.872,-72.982 154.567,-75.104c128.506,-4.026 200.506,82.96 200.506,82.96c0,0 -6.689,4.972 -22.582,14.303c-42.088,24.711 -116.452,76.77 -177.924,74.676c-80.278,-2.734 -112.652,-45.221 -157.042,-61.775c-20.747,-7.737 -30.696,-1.437 -30.696,-1.437Zm361.947,-28.647c-25.194,-22.81 -85.085,-66.197 -173.687,-63.421c-63.367,1.985 -100.508,33.823 -144.278,71.129c-2.744,2.339 -5.282,4.578 -7.62,6.704l0.158,0.056c18.695,6.972 35.442,18.174 54.127,29.457c24.604,14.859 53.136,29.761 97.658,31.277c22.304,0.76 46.404,-6.654 69.828,-16.882c38.07,-16.622 74.271,-40.937 99.09,-55.509l4.724,-2.811Z" style="fill:#fff;"/><path d="M1137.5,1516.33c54.838,-4.737 84.933,23.984 87.463,57.901c4.152,55.677 -38.83,84.238 -85.368,84.238c-46.539,0 -87.445,-33.338 -87.445,-74.739c0,-41.402 31.741,-62.768 85.35,-67.4Z" style="fill:none;stroke:#fff;stroke-width:16.67px;"/><path d="M1139.6,1561.33c17.236,0 31.23,8.417 31.23,23.751c0,15.334 -13.994,27.783 -31.23,27.783c-17.237,0 -31.23,-12.449 -31.23,-27.783c0,-15.334 13.993,-23.751 31.23,-23.751Z" style="fill:#fff;"/><path d="M1139.6,1547.87c-13.799,-0.36 -25.971,3.964 -34.093,11.149c-7.2,6.369 -11.408,15.183 -11.599,26.067c0.352,12.19 5.589,23.718 15.395,30.766c8.237,5.92 18.868,9.369 30.297,7.97c10.992,-0.131 20.843,-4.169 28.293,-10.356c8.562,-7.109 13.887,-17.144 14.145,-28.38c0.473,-10.068 -3.56,-18.147 -9.783,-24.512c-7.414,-7.583 -19.176,-11.973 -32.655,-12.704Zm0,26.931c5.436,-0.303 10.555,0.052 14.409,2.248c3.027,1.724 5.434,4.238 5.613,8.037c0.107,4.681 -1.926,9.028 -5.46,12.029c-3.757,3.19 -8.968,4.868 -14.562,4.801c-4.277,-0.519 -7.715,-2.812 -10.774,-5.185c-1.651,-1.281 -2.59,-3.132 -3.712,-4.792c-1.373,-2.029 -2.303,-4.323 -2.283,-6.853c-0.053,-2.835 1.182,-5.061 3.337,-6.509c3.518,-2.364 8.23,-3.636 13.432,-3.776Z" style="fill:#fff;"/></svg>